<svg width="71" height="115" viewBox="0 0 71 115" fill="none" xmlns="http://www.w3.org/2000/svg">
<g opacity="0.3">
<mask id="mask0" mask-type="alpha" maskUnits="userSpaceOnUse" x="-1" y="0" width="11" height="11">
<path d="M4.32142 10.425C7.23228 10.425 9.59201 8.09121 9.59201 5.21245C9.59201 2.33368 7.23228 0 4.32142 0C1.41056 0 -0.949158 2.33368 -0.949158 5.21245C-0.949158 8.09121 1.41056 10.425 4.32142 10.425Z" fill="url(#paint0_linear)"/>
</mask>
<g mask="url(#mask0)">
<path d="M4.32142 10.425C7.23228 10.425 9.59201 8.09121 9.59201 5.21245C9.59201 2.33368 7.23228 0 4.32142 0C1.41056 0 -0.949158 2.33368 -0.949158 5.21245C-0.949158 8.09121 1.41056 10.425 4.32142 10.425Z" fill="url(#paint1_linear)"/>
</g>
<mask id="mask1" mask-type="alpha" maskUnits="userSpaceOnUse" x="29" y="0" width="12" height="11">
<path d="M34.8469 10.425C37.7577 10.425 40.1175 8.09121 40.1175 5.21245C40.1175 2.33368 37.7577 0 34.8469 0C31.936 0 29.5763 2.33368 29.5763 5.21245C29.5763 8.09121 31.936 10.425 34.8469 10.425Z" fill="url(#paint2_linear)"/>
</mask>
<g mask="url(#mask1)">
<path d="M34.8469 10.425C37.7577 10.425 40.1175 8.09121 40.1175 5.21245C40.1175 2.33368 37.7577 0 34.8469 0C31.936 0 29.5763 2.33368 29.5763 5.21245C29.5763 8.09121 31.936 10.425 34.8469 10.425Z" fill="url(#paint3_linear)"/>
</g>
<mask id="mask2" mask-type="alpha" maskUnits="userSpaceOnUse" x="60" y="0" width="11" height="11">
<path d="M65.3723 10.425C68.2832 10.425 70.6429 8.09121 70.6429 5.21245C70.6429 2.33368 68.2832 0 65.3723 0C62.4615 0 60.1017 2.33368 60.1017 5.21245C60.1017 8.09121 62.4615 10.425 65.3723 10.425Z" fill="url(#paint4_linear)"/>
</mask>
<g mask="url(#mask2)">
<path d="M65.3723 10.425C68.2832 10.425 70.6429 8.09121 70.6429 5.21245C70.6429 2.33368 68.2832 0 65.3723 0C62.4615 0 60.1017 2.33368 60.1017 5.21245C60.1017 8.09121 62.4615 10.425 65.3723 10.425Z" fill="url(#paint5_linear)"/>
</g>
<mask id="mask3" mask-type="alpha" maskUnits="userSpaceOnUse" x="-1" y="26" width="11" height="11">
<path d="M4.32142 36.5958C7.23228 36.5958 9.59201 34.2621 9.59201 31.3834C9.59201 28.5046 7.23228 26.171 4.32142 26.171C1.41056 26.171 -0.949158 28.5046 -0.949158 31.3834C-0.949158 34.2621 1.41056 36.5958 4.32142 36.5958Z" fill="url(#paint6_linear)"/>
</mask>
<g mask="url(#mask3)">
<path d="M4.32142 36.5958C7.23228 36.5958 9.59201 34.2621 9.59201 31.3834C9.59201 28.5046 7.23228 26.171 4.32142 26.171C1.41056 26.171 -0.949158 28.5046 -0.949158 31.3834C-0.949158 34.2621 1.41056 36.5958 4.32142 36.5958Z" fill="url(#paint7_linear)"/>
</g>
<mask id="mask4" mask-type="alpha" maskUnits="userSpaceOnUse" x="29" y="26" width="12" height="11">
<path d="M34.8469 36.5958C37.7577 36.5958 40.1175 34.2621 40.1175 31.3834C40.1175 28.5046 37.7577 26.171 34.8469 26.171C31.936 26.171 29.5763 28.5046 29.5763 31.3834C29.5763 34.2621 31.936 36.5958 34.8469 36.5958Z" fill="url(#paint8_linear)"/>
</mask>
<g mask="url(#mask4)">
<path d="M34.8469 36.5958C37.7577 36.5958 40.1175 34.2621 40.1175 31.3834C40.1175 28.5046 37.7577 26.171 34.8469 26.171C31.936 26.171 29.5763 28.5046 29.5763 31.3834C29.5763 34.2621 31.936 36.5958 34.8469 36.5958Z" fill="url(#paint9_linear)"/>
</g>
<mask id="mask5" mask-type="alpha" maskUnits="userSpaceOnUse" x="60" y="26" width="11" height="11">
<path d="M65.3723 36.5958C68.2832 36.5958 70.6429 34.2621 70.6429 31.3834C70.6429 28.5046 68.2832 26.171 65.3723 26.171C62.4615 26.171 60.1017 28.5046 60.1017 31.3834C60.1017 34.2621 62.4615 36.5958 65.3723 36.5958Z" fill="url(#paint10_linear)"/>
</mask>
<g mask="url(#mask5)">
<path d="M65.3723 36.5958C68.2832 36.5958 70.6429 34.2621 70.6429 31.3834C70.6429 28.5046 68.2832 26.171 65.3723 26.171C62.4615 26.171 60.1017 28.5046 60.1017 31.3834C60.1017 34.2621 62.4615 36.5958 65.3723 36.5958Z" fill="url(#paint11_linear)"/>
</g>
<mask id="mask6" mask-type="alpha" maskUnits="userSpaceOnUse" x="-1" y="52" width="11" height="11">
<path d="M4.32142 62.7125C7.23228 62.7125 9.59201 60.3788 9.59201 57.5C9.59201 54.6212 7.23228 52.2875 4.32142 52.2875C1.41056 52.2875 -0.949158 54.6212 -0.949158 57.5C-0.949158 60.3788 1.41056 62.7125 4.32142 62.7125Z" fill="url(#paint12_linear)"/>
</mask>
<g mask="url(#mask6)">
<path d="M4.32142 62.7125C7.23228 62.7125 9.59201 60.3788 9.59201 57.5C9.59201 54.6212 7.23228 52.2875 4.32142 52.2875C1.41056 52.2875 -0.949158 54.6212 -0.949158 57.5C-0.949158 60.3788 1.41056 62.7125 4.32142 62.7125Z" fill="url(#paint13_linear)"/>
</g>
<mask id="mask7" mask-type="alpha" maskUnits="userSpaceOnUse" x="29" y="52" width="12" height="11">
<path d="M34.8469 62.7125C37.7577 62.7125 40.1175 60.3788 40.1175 57.5C40.1175 54.6212 37.7577 52.2875 34.8469 52.2875C31.936 52.2875 29.5763 54.6212 29.5763 57.5C29.5763 60.3788 31.936 62.7125 34.8469 62.7125Z" fill="url(#paint14_linear)"/>
</mask>
<g mask="url(#mask7)">
<path d="M34.8469 62.7125C37.7577 62.7125 40.1175 60.3788 40.1175 57.5C40.1175 54.6212 37.7577 52.2875 34.8469 52.2875C31.936 52.2875 29.5763 54.6212 29.5763 57.5C29.5763 60.3788 31.936 62.7125 34.8469 62.7125Z" fill="url(#paint15_linear)"/>
</g>
<mask id="mask8" mask-type="alpha" maskUnits="userSpaceOnUse" x="60" y="52" width="11" height="11">
<path d="M65.3723 62.7125C68.2832 62.7125 70.6429 60.3788 70.6429 57.5C70.6429 54.6212 68.2832 52.2875 65.3723 52.2875C62.4615 52.2875 60.1017 54.6212 60.1017 57.5C60.1017 60.3788 62.4615 62.7125 65.3723 62.7125Z" fill="url(#paint16_linear)"/>
</mask>
<g mask="url(#mask8)">
<path d="M65.3723 62.7125C68.2832 62.7125 70.6429 60.3788 70.6429 57.5C70.6429 54.6212 68.2832 52.2875 65.3723 52.2875C62.4615 52.2875 60.1017 54.6212 60.1017 57.5C60.1017 60.3788 62.4615 62.7125 65.3723 62.7125Z" fill="url(#paint17_linear)"/>
</g>
<mask id="mask9" mask-type="alpha" maskUnits="userSpaceOnUse" x="-1" y="78" width="11" height="11">
<path d="M4.32142 88.8834C7.23228 88.8834 9.59201 86.5496 9.59201 83.6709C9.59201 80.7921 7.23228 78.4584 4.32142 78.4584C1.41056 78.4584 -0.949158 80.7921 -0.949158 83.6709C-0.949158 86.5496 1.41056 88.8834 4.32142 88.8834Z" fill="url(#paint18_linear)"/>
</mask>
<g mask="url(#mask9)">
<path d="M4.32142 88.8834C7.23228 88.8834 9.59201 86.5496 9.59201 83.6709C9.59201 80.7921 7.23228 78.4584 4.32142 78.4584C1.41056 78.4584 -0.949158 80.7921 -0.949158 83.6709C-0.949158 86.5496 1.41056 88.8834 4.32142 88.8834Z" fill="url(#paint19_linear)"/>
</g>
<mask id="mask10" mask-type="alpha" maskUnits="userSpaceOnUse" x="29" y="78" width="12" height="11">
<path d="M34.8469 88.8834C37.7577 88.8834 40.1175 86.5496 40.1175 83.6709C40.1175 80.7921 37.7577 78.4584 34.8469 78.4584C31.936 78.4584 29.5763 80.7921 29.5763 83.6709C29.5763 86.5496 31.936 88.8834 34.8469 88.8834Z" fill="url(#paint20_linear)"/>
</mask>
<g mask="url(#mask10)">
<path d="M34.8469 88.8834C37.7577 88.8834 40.1175 86.5496 40.1175 83.6709C40.1175 80.7921 37.7577 78.4584 34.8469 78.4584C31.936 78.4584 29.5763 80.7921 29.5763 83.6709C29.5763 86.5496 31.936 88.8834 34.8469 88.8834Z" fill="url(#paint21_linear)"/>
</g>
<mask id="mask11" mask-type="alpha" maskUnits="userSpaceOnUse" x="60" y="78" width="11" height="11">
<path d="M65.3723 88.8834C68.2832 88.8834 70.6429 86.5496 70.6429 83.6709C70.6429 80.7921 68.2832 78.4584 65.3723 78.4584C62.4615 78.4584 60.1017 80.7921 60.1017 83.6709C60.1017 86.5496 62.4615 88.8834 65.3723 88.8834Z" fill="url(#paint22_linear)"/>
</mask>
<g mask="url(#mask11)">
<path d="M65.3723 88.8834C68.2832 88.8834 70.6429 86.5496 70.6429 83.6709C70.6429 80.7921 68.2832 78.4584 65.3723 78.4584C62.4615 78.4584 60.1017 80.7921 60.1017 83.6709C60.1017 86.5496 62.4615 88.8834 65.3723 88.8834Z" fill="url(#paint23_linear)"/>
</g>
<mask id="mask12" mask-type="alpha" maskUnits="userSpaceOnUse" x="-1" y="104" width="11" height="11">
<path d="M4.32142 115C7.23228 115 9.59201 112.666 9.59201 109.788C9.59201 106.909 7.23228 104.575 4.32142 104.575C1.41056 104.575 -0.949158 106.909 -0.949158 109.788C-0.949158 112.666 1.41056 115 4.32142 115Z" fill="url(#paint24_linear)"/>
</mask>
<g mask="url(#mask12)">
<path d="M4.32142 115C7.23228 115 9.59201 112.666 9.59201 109.788C9.59201 106.909 7.23228 104.575 4.32142 104.575C1.41056 104.575 -0.949158 106.909 -0.949158 109.788C-0.949158 112.666 1.41056 115 4.32142 115Z" fill="url(#paint25_linear)"/>
</g>
<mask id="mask13" mask-type="alpha" maskUnits="userSpaceOnUse" x="29" y="104" width="12" height="11">
<path d="M34.8469 115C37.7577 115 40.1175 112.666 40.1175 109.788C40.1175 106.909 37.7577 104.575 34.8469 104.575C31.936 104.575 29.5763 106.909 29.5763 109.788C29.5763 112.666 31.936 115 34.8469 115Z" fill="url(#paint26_linear)"/>
</mask>
<g mask="url(#mask13)">
<path d="M34.8469 115C37.7577 115 40.1175 112.666 40.1175 109.788C40.1175 106.909 37.7577 104.575 34.8469 104.575C31.936 104.575 29.5763 106.909 29.5763 109.788C29.5763 112.666 31.936 115 34.8469 115Z" fill="url(#paint27_linear)"/>
</g>
<mask id="mask14" mask-type="alpha" maskUnits="userSpaceOnUse" x="60" y="104" width="11" height="11">
<path d="M65.3723 115C68.2832 115 70.6429 112.666 70.6429 109.788C70.6429 106.909 68.2832 104.575 65.3723 104.575C62.4615 104.575 60.1017 106.909 60.1017 109.788C60.1017 112.666 62.4615 115 65.3723 115Z" fill="url(#paint28_linear)"/>
</mask>
<g mask="url(#mask14)">
<path d="M65.3723 115C68.2832 115 70.6429 112.666 70.6429 109.788C70.6429 106.909 68.2832 104.575 65.3723 104.575C62.4615 104.575 60.1017 106.909 60.1017 109.788C60.1017 112.666 62.4615 115 65.3723 115Z" fill="url(#paint29_linear)"/>
</g>
</g>
<defs>
<linearGradient id="paint0_linear" x1="46.2716" y1="110.551" x2="-24.7096" y2="-71.6408" gradientUnits="userSpaceOnUse">
<stop/>
<stop offset="1" stop-color="white"/>
</linearGradient>
<linearGradient id="paint1_linear" x1="46.2716" y1="110.551" x2="-24.7096" y2="-71.6408" gradientUnits="userSpaceOnUse">
<stop stop-color="#97C3F9"/>
<stop offset="1" stop-color="#93C1F9"/>
</linearGradient>
<linearGradient id="paint2_linear" x1="72.6874" y1="100.259" x2="1.70607" y2="-81.9327" gradientUnits="userSpaceOnUse">
<stop/>
<stop offset="1" stop-color="white"/>
</linearGradient>
<linearGradient id="paint3_linear" x1="72.6874" y1="100.259" x2="1.70607" y2="-81.9327" gradientUnits="userSpaceOnUse">
<stop stop-color="#97C3F9"/>
<stop offset="1" stop-color="#93C1F9"/>
</linearGradient>
<linearGradient id="paint4_linear" x1="99.1032" y1="89.9679" x2="28.1219" y2="-92.2242" gradientUnits="userSpaceOnUse">
<stop/>
<stop offset="1" stop-color="white"/>
</linearGradient>
<linearGradient id="paint5_linear" x1="99.1032" y1="89.9679" x2="28.1219" y2="-92.2242" gradientUnits="userSpaceOnUse">
<stop stop-color="#97C3F9"/>
<stop offset="1" stop-color="#93C1F9"/>
</linearGradient>
<linearGradient id="paint6_linear" x1="37.257" y1="114.062" x2="-33.7231" y2="-68.1286" gradientUnits="userSpaceOnUse">
<stop/>
<stop offset="1" stop-color="white"/>
</linearGradient>
<linearGradient id="paint7_linear" x1="37.257" y1="114.062" x2="-33.7231" y2="-68.1286" gradientUnits="userSpaceOnUse">
<stop stop-color="#97C3F9"/>
<stop offset="1" stop-color="#93C1F9"/>
</linearGradient>
<linearGradient id="paint8_linear" x1="63.6728" y1="103.771" x2="-7.30728" y2="-78.42" gradientUnits="userSpaceOnUse">
<stop/>
<stop offset="1" stop-color="white"/>
</linearGradient>
<linearGradient id="paint9_linear" x1="63.6728" y1="103.771" x2="-7.30728" y2="-78.42" gradientUnits="userSpaceOnUse">
<stop stop-color="#97C3F9"/>
<stop offset="1" stop-color="#93C1F9"/>
</linearGradient>
<linearGradient id="paint10_linear" x1="90.0887" y1="93.4794" x2="19.1086" y2="-88.7114" gradientUnits="userSpaceOnUse">
<stop/>
<stop offset="1" stop-color="white"/>
</linearGradient>
<linearGradient id="paint11_linear" x1="90.0887" y1="93.4794" x2="19.1086" y2="-88.7114" gradientUnits="userSpaceOnUse">
<stop stop-color="#97C3F9"/>
<stop offset="1" stop-color="#93C1F9"/>
</linearGradient>
<linearGradient id="paint12_linear" x1="28.2425" y1="117.575" x2="-42.7388" y2="-64.617" gradientUnits="userSpaceOnUse">
<stop/>
<stop offset="1" stop-color="white"/>
</linearGradient>
<linearGradient id="paint13_linear" x1="28.2425" y1="117.575" x2="-42.7388" y2="-64.617" gradientUnits="userSpaceOnUse">
<stop stop-color="#97C3F9"/>
<stop offset="1" stop-color="#93C1F9"/>
</linearGradient>
<linearGradient id="paint14_linear" x1="54.6582" y1="107.283" x2="-16.3231" y2="-74.9087" gradientUnits="userSpaceOnUse">
<stop/>
<stop offset="1" stop-color="white"/>
</linearGradient>
<linearGradient id="paint15_linear" x1="54.6582" y1="107.283" x2="-16.3231" y2="-74.9087" gradientUnits="userSpaceOnUse">
<stop stop-color="#97C3F9"/>
<stop offset="1" stop-color="#93C1F9"/>
</linearGradient>
<linearGradient id="paint16_linear" x1="81.0741" y1="96.9919" x2="10.0928" y2="-85.2002" gradientUnits="userSpaceOnUse">
<stop/>
<stop offset="1" stop-color="white"/>
</linearGradient>
<linearGradient id="paint17_linear" x1="81.0741" y1="96.9919" x2="10.0928" y2="-85.2002" gradientUnits="userSpaceOnUse">
<stop stop-color="#97C3F9"/>
<stop offset="1" stop-color="#93C1F9"/>
</linearGradient>
<linearGradient id="paint18_linear" x1="19.2279" y1="121.087" x2="-51.7533" y2="-61.105" gradientUnits="userSpaceOnUse">
<stop/>
<stop offset="1" stop-color="white"/>
</linearGradient>
<linearGradient id="paint19_linear" x1="19.2279" y1="121.087" x2="-51.7533" y2="-61.105" gradientUnits="userSpaceOnUse">
<stop stop-color="#97C3F9"/>
<stop offset="1" stop-color="#93C1F9"/>
</linearGradient>
<linearGradient id="paint20_linear" x1="45.6437" y1="110.795" x2="-25.3376" y2="-71.3966" gradientUnits="userSpaceOnUse">
<stop/>
<stop offset="1" stop-color="white"/>
</linearGradient>
<linearGradient id="paint21_linear" x1="45.6437" y1="110.795" x2="-25.3376" y2="-71.3966" gradientUnits="userSpaceOnUse">
<stop stop-color="#97C3F9"/>
<stop offset="1" stop-color="#93C1F9"/>
</linearGradient>
<linearGradient id="paint22_linear" x1="72.0595" y1="100.504" x2="1.07825" y2="-81.6882" gradientUnits="userSpaceOnUse">
<stop/>
<stop offset="1" stop-color="white"/>
</linearGradient>
<linearGradient id="paint23_linear" x1="72.0595" y1="100.504" x2="1.07825" y2="-81.6882" gradientUnits="userSpaceOnUse">
<stop stop-color="#97C3F9"/>
<stop offset="1" stop-color="#93C1F9"/>
</linearGradient>
<linearGradient id="paint24_linear" x1="10.2134" y1="124.599" x2="-60.7678" y2="-57.5929" gradientUnits="userSpaceOnUse">
<stop/>
<stop offset="1" stop-color="white"/>
</linearGradient>
<linearGradient id="paint25_linear" x1="10.2134" y1="124.599" x2="-60.7678" y2="-57.5929" gradientUnits="userSpaceOnUse">
<stop stop-color="#97C3F9"/>
<stop offset="1" stop-color="#93C1F9"/>
</linearGradient>
<linearGradient id="paint26_linear" x1="36.6292" y1="114.307" x2="-34.3521" y2="-67.8846" gradientUnits="userSpaceOnUse">
<stop/>
<stop offset="1" stop-color="white"/>
</linearGradient>
<linearGradient id="paint27_linear" x1="36.6292" y1="114.307" x2="-34.3521" y2="-67.8846" gradientUnits="userSpaceOnUse">
<stop stop-color="#97C3F9"/>
<stop offset="1" stop-color="#93C1F9"/>
</linearGradient>
<linearGradient id="paint28_linear" x1="63.045" y1="104.016" x2="-7.93625" y2="-78.1761" gradientUnits="userSpaceOnUse">
<stop/>
<stop offset="1" stop-color="white"/>
</linearGradient>
<linearGradient id="paint29_linear" x1="63.045" y1="104.016" x2="-7.93625" y2="-78.1761" gradientUnits="userSpaceOnUse">
<stop stop-color="#97C3F9"/>
<stop offset="1" stop-color="#93C1F9"/>
</linearGradient>
</defs>
</svg>
