<svg width="163" height="41" viewBox="0 0 163 41" fill="none" xmlns="http://www.w3.org/2000/svg">
<path d="M60.2286 15.456H54.6606V12.912H68.9406V15.456H63.3486V30H60.2286V15.456ZM75.4935 17.592C75.9575 17.592 76.3575 17.656 76.6935 17.784L76.6695 20.52C76.1575 20.312 75.6295 20.208 75.0855 20.208C74.0615 20.208 73.2775 20.504 72.7335 21.096C72.2055 21.688 71.9415 22.472 71.9415 23.448V30H68.9655V21.312C68.9655 20.032 68.9015 18.888 68.7735 17.88H71.5815L71.8215 20.016C72.1255 19.232 72.6055 18.632 73.2615 18.216C73.9175 17.8 74.6615 17.592 75.4935 17.592ZM89.7216 17.88V30H86.7696V28.056C86.4016 28.728 85.8736 29.256 85.1856 29.64C84.4976 30.008 83.7136 30.192 82.8336 30.192C81.7776 30.192 80.8416 29.936 80.0256 29.424C79.2096 28.912 78.5776 28.184 78.1296 27.24C77.6816 26.296 77.4576 25.2 77.4576 23.952C77.4576 22.704 77.6816 21.6 78.1296 20.64C78.5936 19.664 79.2336 18.912 80.0496 18.384C80.8656 17.84 81.7936 17.568 82.8336 17.568C83.7136 17.568 84.4976 17.76 85.1856 18.144C85.8736 18.512 86.4016 19.032 86.7696 19.704V17.88H89.7216ZM83.6496 27.84C84.6416 27.84 85.4096 27.496 85.9536 26.808C86.4976 26.12 86.7696 25.152 86.7696 23.904C86.7696 22.624 86.4976 21.64 85.9536 20.952C85.4096 20.264 84.6336 19.92 83.6256 19.92C82.6336 19.92 81.8576 20.28 81.2976 21C80.7536 21.704 80.4816 22.688 80.4816 23.952C80.4816 25.2 80.7536 26.16 81.2976 26.832C81.8576 27.504 82.6416 27.84 83.6496 27.84ZM98.7249 14.712C97.4289 14.712 96.7809 15.424 96.7809 16.848V17.88H99.4929V20.136H96.7809V30H93.7809V20.136H91.4769V17.88H93.7809V16.704C93.7809 15.264 94.1409 14.16 94.8609 13.392C95.5969 12.608 96.6449 12.216 98.0049 12.216C98.7569 12.216 99.3889 12.312 99.9009 12.504V14.88C99.4529 14.768 99.0609 14.712 98.7249 14.712ZM113.276 17.88V30H110.324V28.056C109.956 28.728 109.428 29.256 108.74 29.64C108.052 30.008 107.268 30.192 106.388 30.192C105.332 30.192 104.396 29.936 103.58 29.424C102.764 28.912 102.132 28.184 101.684 27.24C101.236 26.296 101.012 25.2 101.012 23.952C101.012 22.704 101.236 21.6 101.684 20.64C102.148 19.664 102.788 18.912 103.604 18.384C104.42 17.84 105.348 17.568 106.388 17.568C107.268 17.568 108.052 17.76 108.74 18.144C109.428 18.512 109.956 19.032 110.324 19.704V17.88H113.276ZM107.204 27.84C108.196 27.84 108.964 27.496 109.508 26.808C110.052 26.12 110.324 25.152 110.324 23.904C110.324 22.624 110.052 21.64 109.508 20.952C108.964 20.264 108.188 19.92 107.18 19.92C106.188 19.92 105.412 20.28 104.852 21C104.308 21.704 104.036 22.688 104.036 23.952C104.036 25.2 104.308 26.16 104.852 26.832C105.412 27.504 106.196 27.84 107.204 27.84ZM116.544 12.336H119.52V30H116.544V12.336ZM134.513 17.88V29.616C134.513 31.504 133.993 32.936 132.953 33.912C131.913 34.888 130.385 35.376 128.369 35.376C126.497 35.376 124.849 34.984 123.425 34.2L123.905 31.92C125.377 32.688 126.841 33.072 128.297 33.072C130.457 33.072 131.537 32 131.537 29.856V27.456C131.169 28.112 130.633 28.648 129.929 29.064C129.225 29.464 128.433 29.664 127.553 29.664C126.497 29.664 125.553 29.416 124.721 28.92C123.905 28.408 123.265 27.696 122.801 26.784C122.353 25.856 122.129 24.8 122.129 23.616C122.129 22.432 122.353 21.384 122.801 20.472C123.265 19.544 123.905 18.832 124.721 18.336C125.553 17.824 126.497 17.568 127.553 17.568C128.449 17.568 129.241 17.76 129.929 18.144C130.633 18.512 131.169 19.032 131.537 19.704V17.88H134.513ZM128.345 27.312C129.337 27.312 130.113 26.984 130.673 26.328C131.249 25.672 131.537 24.768 131.537 23.616C131.537 22.464 131.257 21.56 130.697 20.904C130.137 20.248 129.353 19.92 128.345 19.92C127.353 19.92 126.569 20.248 125.993 20.904C125.433 21.56 125.153 22.464 125.153 23.616C125.153 24.768 125.433 25.672 125.993 26.328C126.569 26.984 127.353 27.312 128.345 27.312ZM149.347 17.88V30H146.395V28.056C146.027 28.728 145.499 29.256 144.811 29.64C144.123 30.008 143.339 30.192 142.459 30.192C141.403 30.192 140.467 29.936 139.651 29.424C138.835 28.912 138.203 28.184 137.755 27.24C137.307 26.296 137.083 25.2 137.083 23.952C137.083 22.704 137.307 21.6 137.755 20.64C138.219 19.664 138.859 18.912 139.675 18.384C140.491 17.84 141.419 17.568 142.459 17.568C143.339 17.568 144.123 17.76 144.811 18.144C145.499 18.512 146.027 19.032 146.395 19.704V17.88H149.347ZM143.275 27.84C144.267 27.84 145.035 27.496 145.579 26.808C146.123 26.12 146.395 25.152 146.395 23.904C146.395 22.624 146.123 21.64 145.579 20.952C145.035 20.264 144.259 19.92 143.251 19.92C142.259 19.92 141.483 20.28 140.923 21C140.379 21.704 140.107 22.688 140.107 23.952C140.107 25.2 140.379 26.16 140.923 26.832C141.483 27.504 142.267 27.84 143.275 27.84ZM159.142 17.592C159.606 17.592 160.006 17.656 160.342 17.784L160.318 20.52C159.806 20.312 159.278 20.208 158.734 20.208C157.71 20.208 156.926 20.504 156.382 21.096C155.854 21.688 155.59 22.472 155.59 23.448V30H152.614V21.312C152.614 20.032 152.55 18.888 152.422 17.88H155.23L155.47 20.016C155.774 19.232 156.254 18.632 156.91 18.216C157.566 17.8 158.31 17.592 159.142 17.592Z" fill="#233348"/>
<ellipse cx="21.6103" cy="20.5" rx="20.6654" ry="20.5" fill="#458FF6"/>
<path d="M20.3938 15.244H14.3618V12.488H29.8318V15.244H23.7738V31H20.3938V15.244Z" fill="white"/>
</svg>
